<?xml version="1.0" encoding="utf-8"?>
<!-- created with bpmn-js / http://bpmn.io -->
<!DOCTYPE svg PUBLIC "-//W3C//DTD SVG 1.1//EN" "http://www.w3.org/Graphics/SVG/1.1/DTD/svg11.dtd">
<svg xmlns="http://www.w3.org/2000/svg" xmlns:xlink="http://www.w3.org/1999/xlink" width="660" height="650" viewBox="135 35 660 650" version="1.1"><defs><pattern id="djs-grid-pattern-40498" width="10" height="10" patternUnits="userSpaceOnUse" _mstVisible="3"><circle cx="0.5" cy="0.5" r="0.5" style="fill: rgb(204, 204, 204);" _mstVisible="4"/></pattern></defs><g class="djs-group"><g class="djs-element djs-shape" data-element-id="Participant_1ib6yex" style="display: block;" transform="matrix(1 0 0 1 140 40)" _mstVisible="0" _mstHidden="1"><g class="djs-visual" _mstVisible="1" _mstHidden="1"><rect x="0" y="0" width="650" height="270" rx="0" ry="0" style="stroke-linecap: round; stroke-linejoin: round; stroke: rgb(34, 36, 42); stroke-width: 1.5px; fill: white; fill-opacity: 0.95;"/><path style="fill: none; stroke-linecap: round; stroke-linejoin: round; stroke: rgb(34, 36, 42); stroke-width: 1.5px;" d="M30,0L30,270"/><text lineHeight="1.2" class="djs-label" style="font-family: Arial, sans-serif; font-size: 12px; font-weight: normal; fill: rgb(34, 36, 42);" transform="matrix(-1.83697e-16 -1 1 -1.83697e-16 0 270)"><tspan x="106.8505859375" y="18.6" _mstTextHash="1180062" _mstHash="406">Продовец</tspan></text></g><rect x="-5" y="-5" rx="4" width="660" height="280" class="djs-outline" style="fill: none;" _mstVisible="1"/><rect class="djs-hit djs-hit-no-move" x="0" y="0" width="650" height="270" style="fill: none; stroke-opacity: 0; stroke: white; stroke-width: 15px;"/><rect class="djs-hit djs-hit-click-stroke" x="0" y="0" width="650" height="270" style="fill: none; stroke-opacity: 0; stroke: white; stroke-width: 15px;"/><rect class="djs-hit djs-hit-all" x="0" y="0" width="30" height="270" style="fill: none; stroke-opacity: 0; stroke: white; stroke-width: 15px;"/></g><g class="djs-children"><g class="djs-group" _mstVisible="4"><g class="djs-element djs-shape" data-element-id="StartEvent_15hnt2q" style="display: block;" transform="matrix(1 0 0 1 192 162)" _mstVisible="5"><g class="djs-visual" _mstVisible="6"><circle cx="18" cy="18" r="18" style="stroke-linecap: round; stroke-linejoin: round; stroke: rgb(13, 67, 114); stroke-width: 2px; fill: rgb(187, 222, 251); fill-opacity: 0.95;"/></g><rect class="djs-hit djs-hit-all" x="0" y="0" width="36" height="36" style="fill: none; stroke-opacity: 0; stroke: white; stroke-width: 15px;" _mstVisible="6"/><circle cx="18" cy="18" r="23" class="djs-outline" style="fill: none;" _mstVisible="6"/></g></g><g class="djs-group" _mstVisible="4"><g class="djs-element djs-shape" data-element-id="Activity_01hnnjx" style="display: block;" transform="matrix(1 0 0 1 250 140)" _mstVisible="5"><g class="djs-visual" _mstVisible="6"><rect x="0" y="0" width="100" height="80" rx="10" ry="10" style="stroke-linecap: round; stroke-linejoin: round; stroke: rgb(34, 36, 42); stroke-width: 2px; fill: white; fill-opacity: 0.95;"/><text lineHeight="1.2" class="djs-label" _mstTextHash="8587709" _mstHash="260" style="font-family: Arial, sans-serif; font-size: 12px; font-weight: normal; fill: rgb(34, 36, 42);"><tspan x="22.117250442504883" y="22">Продавец </tspan><tspan x="23.306835174560547" y="36.4">заходит в </tspan><tspan x="29.574998021125793" y="50.8">личный </tspan><tspan x="26.91666603088379" y="65.19999999999999">кабинет.</tspan></text></g><rect class="djs-hit djs-hit-all" x="0" y="0" width="100" height="80" style="fill: none; stroke-opacity: 0; stroke: white; stroke-width: 15px;" _mstVisible="6"/><rect x="-5" y="-5" rx="14" width="110" height="90" class="djs-outline" style="fill: none;" _mstVisible="6"/></g></g><g class="djs-group" _mstVisible="4"><g class="djs-element djs-shape" data-element-id="Activity_1gpjuur" style="display: block;" transform="matrix(1 0 0 1 380 140)" _mstVisible="5"><g class="djs-visual" _mstVisible="6"><rect x="0" y="0" width="100" height="80" rx="10" ry="10" style="stroke-linecap: round; stroke-linejoin: round; stroke: rgb(34, 36, 42); stroke-width: 2px; fill: white; fill-opacity: 0.95;"/><text lineHeight="1.2" class="djs-label" _mstTextHash="7556107" _mstHash="261" style="font-family: Arial, sans-serif; font-size: 12px; font-weight: normal; fill: rgb(34, 36, 42);"><tspan x="13.291664123535156" y="29.200000000000003">Нажимает на </tspan><tspan x="23.045961380004883" y="43.6">кнопку «+ </tspan><tspan x="10.658332824707031" y="58">Новый товар»</tspan></text></g><rect class="djs-hit djs-hit-all" x="0" y="0" width="100" height="80" style="fill: none; stroke-opacity: 0; stroke: white; stroke-width: 15px;" _mstVisible="6"/><rect x="-5" y="-5" rx="14" width="110" height="90" class="djs-outline" style="fill: none;" _mstVisible="6"/></g></g><g class="djs-group" _mstVisible="4"><g class="djs-element djs-shape" data-element-id="Activity_1aqg5o8" style="display: block;" transform="matrix(1 0 0 1 500 140)" _mstVisible="5"><g class="djs-visual" _mstVisible="6"><rect x="0" y="0" width="100" height="80" rx="10" ry="10" style="stroke-linecap: round; stroke-linejoin: round; stroke: rgb(34, 36, 42); stroke-width: 2px; fill: white; fill-opacity: 0.95;"/><text lineHeight="1.2" class="djs-label" _mstTextHash="14610752" _mstHash="262" style="font-family: Arial, sans-serif; font-size: 12px; font-weight: normal; fill: rgb(34, 36, 42);"><tspan x="20.183788299560547" y="14.799999999999999">Заполняет </tspan><tspan x="30.997264862060547" y="29.199999999999996">форму </tspan><tspan x="20.54166603088379" y="43.599999999999994">(название, </tspan><tspan x="17.48332977294922" y="57.99999999999999">цена, фото, </tspan><tspan x="20.058332443237305" y="72.39999999999999">описание).</tspan></text></g><rect class="djs-hit djs-hit-all" x="0" y="0" width="100" height="80" style="fill: none; stroke-opacity: 0; stroke: white; stroke-width: 15px;" _mstVisible="6"/><rect x="-5" y="-5" rx="14" width="110" height="90" class="djs-outline" style="fill: none;" _mstVisible="6"/></g></g><g class="djs-group" _mstVisible="4"><g class="djs-element djs-shape" data-element-id="Activity_0yd5rdl" style="display: block;" transform="matrix(1 0 0 1 620 140)" _mstVisible="5"><g class="djs-visual" _mstVisible="6"><rect x="0" y="0" width="100" height="80" rx="10" ry="10" style="stroke-linecap: round; stroke-linejoin: round; stroke: rgb(34, 36, 42); stroke-width: 2px; fill: white; fill-opacity: 0.95;"/><text lineHeight="1.2" class="djs-label" _mstTextHash="4906265" _mstHash="263" style="font-family: Arial, sans-serif; font-size: 12px; font-weight: normal; fill: rgb(34, 36, 42);"><tspan x="21.165233612060547" y="29.200000000000003">Нажимает </tspan><tspan x="10.105663299560547" y="43.6">«Опубликоват</tspan><tspan x="43.53333282470703" y="58">ь»</tspan></text></g><rect class="djs-hit djs-hit-all" x="0" y="0" width="100" height="80" style="fill: none; stroke-opacity: 0; stroke: white; stroke-width: 15px;" _mstVisible="6"/><rect x="-5" y="-5" rx="14" width="110" height="90" class="djs-outline" style="fill: none;" _mstVisible="6"/></g></g><g class="djs-group" _mstVisible="4" _mstHidden="1"><g class="djs-element djs-connection" data-element-id="Flow_1ggi2za" _mstVisible="5" _mstHidden="1" style="display: block;"><g class="djs-visual" _mstVisible="6"><defs><marker id="marker-6k4jzn8osq3u2bmxsha5ojw2q" viewBox="0 0 20 20" refX="11" refY="10" markerWidth="10" markerHeight="10" orient="auto"><path d="M 1 5 L 11 10 L 1 15 Z" style="stroke-linecap: round; stroke-linejoin: round; stroke: rgb(34, 36, 42); stroke-width: 1px; fill: rgb(34, 36, 42);"/></marker></defs><path data-corner-radius="5" style="fill: none; stroke-linecap: round; stroke-linejoin: round; stroke: rgb(34, 36, 42); stroke-width: 2px; marker-end: url('#marker-6k4jzn8osq3u2bmxsha5ojw2q');" d="M228,180L250,180"/></g><path d="M228,180L250,180" class="djs-hit djs-hit-stroke" style="fill: none; stroke-opacity: 0; stroke: white; stroke-width: 15px;" _mstVisible="6"/><rect x="223" y="175" rx="4" width="32" height="10" class="djs-outline" style="fill: none;" _mstVisible="6"/></g></g><g class="djs-group" _mstVisible="4" _mstHidden="1"><g class="djs-element djs-connection" data-element-id="Flow_0nfp5dh" _mstVisible="5" _mstHidden="1" style="display: block;"><g class="djs-visual" _mstVisible="6"><defs><marker id="marker-0zqbyrxbl8gip2ms67xvradxm" viewBox="0 0 20 20" refX="11" refY="10" markerWidth="10" markerHeight="10" orient="auto"><path d="M 1 5 L 11 10 L 1 15 Z" style="stroke-linecap: round; stroke-linejoin: round; stroke: rgb(34, 36, 42); stroke-width: 1px; fill: rgb(34, 36, 42);"/></marker></defs><path data-corner-radius="5" style="fill: none; stroke-linecap: round; stroke-linejoin: round; stroke: rgb(34, 36, 42); stroke-width: 2px; marker-end: url('#marker-0zqbyrxbl8gip2ms67xvradxm');" d="M350,180L380,180"/></g><path d="M350,180L380,180" class="djs-hit djs-hit-stroke" style="fill: none; stroke-opacity: 0; stroke: white; stroke-width: 15px;" _mstVisible="6"/><rect x="345" y="175" rx="4" width="40" height="10" class="djs-outline" style="fill: none;" _mstVisible="6"/></g></g><g class="djs-group" _mstVisible="4" _mstHidden="1"><g class="djs-element djs-connection" data-element-id="Flow_04jgbq4" _mstVisible="5" _mstHidden="1" style="display: block;"><g class="djs-visual" _mstVisible="6"><defs><marker id="marker-bvdfq796b4hr2btg5pajl920x" viewBox="0 0 20 20" refX="11" refY="10" markerWidth="10" markerHeight="10" orient="auto"><path d="M 1 5 L 11 10 L 1 15 Z" style="stroke-linecap: round; stroke-linejoin: round; stroke: rgb(34, 36, 42); stroke-width: 1px; fill: rgb(34, 36, 42);"/></marker></defs><path data-corner-radius="5" style="fill: none; stroke-linecap: round; stroke-linejoin: round; stroke: rgb(34, 36, 42); stroke-width: 2px; marker-end: url('#marker-bvdfq796b4hr2btg5pajl920x');" d="M480,180L500,180"/></g><path d="M480,180L500,180" class="djs-hit djs-hit-stroke" style="fill: none; stroke-opacity: 0; stroke: white; stroke-width: 15px;" _mstVisible="6"/><rect x="475" y="175" rx="4" width="30" height="10" class="djs-outline" style="fill: none;" _mstVisible="6"/></g></g><g class="djs-group" _mstVisible="4" _mstHidden="1"><g class="djs-element djs-connection" data-element-id="Flow_08gzzbu" _mstVisible="5" _mstHidden="1" style="display: block;"><g class="djs-visual" _mstVisible="6"><defs><marker id="marker-0dduq32af0do7fswixs4pu2p0" viewBox="0 0 20 20" refX="11" refY="10" markerWidth="10" markerHeight="10" orient="auto"><path d="M 1 5 L 11 10 L 1 15 Z" style="stroke-linecap: round; stroke-linejoin: round; stroke: rgb(34, 36, 42); stroke-width: 1px; fill: rgb(34, 36, 42);"/></marker></defs><path data-corner-radius="5" style="fill: none; stroke-linecap: round; stroke-linejoin: round; stroke: rgb(34, 36, 42); stroke-width: 2px; marker-end: url('#marker-0dduq32af0do7fswixs4pu2p0');" d="M600,180L620,180"/></g><path d="M600,180L620,180" class="djs-hit djs-hit-stroke" style="fill: none; stroke-opacity: 0; stroke: white; stroke-width: 15px;" _mstVisible="6"/><rect x="595" y="175" rx="4" width="30" height="10" class="djs-outline" style="fill: none;" _mstVisible="6"/></g></g></g></g><g class="djs-group" _mstHidden="2"><g class="djs-element djs-shape" data-element-id="Participant_1vo4vx3" style="display: block;" transform="matrix(1 0 0 1 140 360)" _mstVisible="0" _mstHidden="1"><g class="djs-visual" _mstVisible="1" _mstHidden="1"><rect x="0" y="0" width="650" height="320" rx="0" ry="0" style="stroke-linecap: round; stroke-linejoin: round; stroke: rgb(34, 36, 42); stroke-width: 1.5px; fill: white; fill-opacity: 0.95;"/><path style="fill: none; stroke-linecap: round; stroke-linejoin: round; stroke: rgb(34, 36, 42); stroke-width: 1.5px;" d="M30,0L30,320"/><text lineHeight="1.2" class="djs-label" style="font-family: Arial, sans-serif; font-size: 12px; font-weight: normal; fill: rgb(34, 36, 42);" transform="matrix(-1.83697e-16 -1 1 -1.83697e-16 0 320)"><tspan x="135.61729621887207" y="18.6" _mstTextHash="981903" _mstHash="403">Система</tspan></text></g><rect x="-5" y="-5" rx="4" width="660" height="330" class="djs-outline" style="fill: none;" _mstVisible="1"/><rect class="djs-hit djs-hit-no-move" x="0" y="0" width="650" height="320" style="fill: none; stroke-opacity: 0; stroke: white; stroke-width: 15px;"/><rect class="djs-hit djs-hit-click-stroke" x="0" y="0" width="650" height="320" style="fill: none; stroke-opacity: 0; stroke: white; stroke-width: 15px;"/><rect class="djs-hit djs-hit-all" x="0" y="0" width="30" height="320" style="fill: none; stroke-opacity: 0; stroke: white; stroke-width: 15px;"/></g><g class="djs-children"><g class="djs-group" _mstVisible="4"><g class="djs-element djs-shape" data-element-id="Activity_0urh7kh" style="display: block;" transform="matrix(1 0 0 1 500 530)" _mstVisible="5"><g class="djs-visual" _mstVisible="6"><rect x="0" y="0" width="100" height="80" rx="10" ry="10" style="stroke-linecap: round; stroke-linejoin: round; stroke: rgb(34, 36, 42); stroke-width: 2px; fill: white; fill-opacity: 0.95;"/><text lineHeight="1.2" class="djs-label" _mstTextHash="7128524" _mstHash="386" style="font-family: Arial, sans-serif; font-size: 12px; font-weight: normal; fill: rgb(34, 36, 42);"><tspan x="21.083202362060547" y="29.200000000000003">«Показать </tspan><tspan x="9.877017974853516" y="43.6">сообщение об </tspan><tspan x="25.691665649414062" y="58">ошибке»</tspan></text><circle cx="5" cy="5" r="5" transform="translate(6, 6)" style="stroke-linecap: round; stroke-linejoin: round; stroke: none; stroke-width: 2px; fill: white;"/><path d="m 12,18 v -1.71335 c 0.352326,-0.0705 0.703932,-0.17838 1.047628,-0.32133 0.344416,-0.14465 0.665822,-0.32133 0.966377,-0.52145 l 1.19431,1.18005 1.567487,-1.57688 -1.195028,-1.18014 c 0.403376,-0.61394 0.683079,-1.29908 0.825447,-2.01824 l 1.622133,-0.01 v -2.2196 l -1.636514,0.01 c -0.07333,-0.35153 -0.178319,-0.70024 -0.323564,-1.04372 -0.145244,-0.34406 -0.321407,-0.6644 -0.522735,-0.96217 l 1.131035,-1.13631 -1.583305,-1.56293 -1.129598,1.13589 c -0.614052,-0.40108 -1.302883,-0.68093 -2.022633,-0.82247 l 0.0093,-1.61852 h -2.241173 l 0.0042,1.63124 c -0.353763,0.0736 -0.705369,0.17977 -1.049785,0.32371 -0.344415,0.14437 -0.665102,0.32092 -0.9635006,0.52046 l -1.1698628,-1.15823 -1.5667691,1.5792 1.1684265,1.15669 c -0.4026573,0.61283 -0.68308,1.29797 -0.8247287,2.01713 l -1.6588041,0.003 v 2.22174 l 1.6724648,-0.006 c 0.073327,0.35077 0.1797598,0.70243 0.3242851,1.04472 0.1452428,0.34448 0.3214064,0.6644 0.5227339,0.96066 l -1.1993431,1.19723 1.5840256,1.56011 1.1964668,-1.19348 c 0.6140517,0.40346 1.3028827,0.68232 2.0233517,0.82331 l 7.19e-4,1.69892 h 2.226848 z m 0.221462,-3.9957 c -1.788948,0.7502 -3.8576,-0.0928 -4.6097055,-1.87438 -0.7521065,-1.78321 0.090598,-3.84627 1.8802645,-4.59604 1.78823,-0.74936 3.856881,0.0929 4.608987,1.87437 0.752106,1.78165 -0.0906,3.84612 -1.879546,4.59605 z" style="fill: white; stroke-linecap: round; stroke-linejoin: round; stroke: rgb(34, 36, 42); stroke-width: 1px;"/><circle cx="5" cy="5" r="5" transform="translate(11, 10)" style="stroke-linecap: round; stroke-linejoin: round; stroke: none; stroke-width: 2px; fill: white;"/><path d="m 17,22 v -1.71335 c 0.352326,-0.0705 0.703932,-0.17838 1.047628,-0.32133 0.344416,-0.14465 0.665822,-0.32133 0.966377,-0.52145 l 1.19431,1.18005 1.567487,-1.57688 -1.195028,-1.18014 c 0.403376,-0.61394 0.683079,-1.29908 0.825447,-2.01824 l 1.622133,-0.01 v -2.2196 l -1.636514,0.01 c -0.07333,-0.35153 -0.178319,-0.70024 -0.323564,-1.04372 -0.145244,-0.34406 -0.321407,-0.6644 -0.522735,-0.96217 l 1.131035,-1.13631 -1.583305,-1.56293 -1.129598,1.13589 c -0.614052,-0.40108 -1.302883,-0.68093 -2.022633,-0.82247 l 0.0093,-1.61852 h -2.241173 l 0.0042,1.63124 c -0.353763,0.0736 -0.705369,0.17977 -1.049785,0.32371 -0.344415,0.14437 -0.665102,0.32092 -0.9635006,0.52046 l -1.1698628,-1.15823 -1.5667691,1.5792 1.1684265,1.15669 c -0.4026573,0.61283 -0.68308,1.29797 -0.8247287,2.01713 l -1.6588041,0.003 v 2.22174 l 1.6724648,-0.006 c 0.073327,0.35077 0.1797598,0.70243 0.3242851,1.04472 0.1452428,0.34448 0.3214064,0.6644 0.5227339,0.96066 l -1.1993431,1.19723 1.5840256,1.56011 1.1964668,-1.19348 c 0.6140517,0.40346 1.3028827,0.68232 2.0233517,0.82331 l 7.19e-4,1.69892 h 2.226848 z m 0.221462,-3.9957 c -1.788948,0.7502 -3.8576,-0.0928 -4.6097055,-1.87438 -0.7521065,-1.78321 0.090598,-3.84627 1.8802645,-4.59604 1.78823,-0.74936 3.856881,0.0929 4.608987,1.87437 0.752106,1.78165 -0.0906,3.84612 -1.879546,4.59605 z" style="fill: white; stroke-linecap: round; stroke-linejoin: round; stroke: rgb(34, 36, 42); stroke-width: 1px;"/></g><rect class="djs-hit djs-hit-all" x="0" y="0" width="100" height="80" style="fill: none; stroke-opacity: 0; stroke: white; stroke-width: 15px;" _mstVisible="6"/><rect x="-5" y="-5" rx="14" width="110" height="90" class="djs-outline" style="fill: none;" _mstVisible="6"/></g></g><g class="djs-group" _mstVisible="4" _mstHidden="1"><g class="djs-element djs-shape" data-element-id="Event_08l16lk" style="display: block;" transform="matrix(1 0 0 1 652 552)" _mstVisible="5" _mstHidden="1"><g class="djs-visual" _mstVisible="6"><circle cx="18" cy="18" r="18" style="stroke-linecap: round; stroke-linejoin: round; stroke: rgb(91, 23, 109); stroke-width: 4px; fill: rgb(225, 190, 231); fill-opacity: 0.95;"/></g><rect class="djs-hit djs-hit-all" x="0" y="0" width="36" height="36" style="fill: none; stroke-opacity: 0; stroke: white; stroke-width: 15px;" _mstVisible="6"/><circle cx="18" cy="18" r="24" class="djs-outline" style="fill: none;" _mstVisible="6"/></g></g><g class="djs-group" _mstVisible="4"><g class="djs-element djs-shape" data-element-id="Activity_1s0dw15" style="display: block;" transform="matrix(1 0 0 1 290 460)" _mstVisible="5"><g class="djs-visual" _mstVisible="6"><rect x="0" y="0" width="100" height="80" rx="10" ry="10" style="stroke-linecap: round; stroke-linejoin: round; stroke: rgb(91, 23, 109); stroke-width: 2px; fill: rgb(225, 190, 231); fill-opacity: 0.95;"/><text lineHeight="1.2" class="djs-label" _mstTextHash="5422599" _mstHash="424" style="font-family: Arial, sans-serif; font-size: 12px; font-weight: normal; fill: rgb(91, 23, 109);"><tspan x="22.90733528137207" y="29.200000000000003">Проверка </tspan><tspan x="29.111545145511627" y="43.6">данных </tspan><tspan x="23.61338996887207" y="58">системой</tspan></text><circle cx="5" cy="5" r="5" transform="translate(6, 6)" style="stroke-linecap: round; stroke-linejoin: round; stroke: none; stroke-width: 2px; fill: rgb(225, 190, 231);"/><path d="m 12,18 v -1.71335 c 0.352326,-0.0705 0.703932,-0.17838 1.047628,-0.32133 0.344416,-0.14465 0.665822,-0.32133 0.966377,-0.52145 l 1.19431,1.18005 1.567487,-1.57688 -1.195028,-1.18014 c 0.403376,-0.61394 0.683079,-1.29908 0.825447,-2.01824 l 1.622133,-0.01 v -2.2196 l -1.636514,0.01 c -0.07333,-0.35153 -0.178319,-0.70024 -0.323564,-1.04372 -0.145244,-0.34406 -0.321407,-0.6644 -0.522735,-0.96217 l 1.131035,-1.13631 -1.583305,-1.56293 -1.129598,1.13589 c -0.614052,-0.40108 -1.302883,-0.68093 -2.022633,-0.82247 l 0.0093,-1.61852 h -2.241173 l 0.0042,1.63124 c -0.353763,0.0736 -0.705369,0.17977 -1.049785,0.32371 -0.344415,0.14437 -0.665102,0.32092 -0.9635006,0.52046 l -1.1698628,-1.15823 -1.5667691,1.5792 1.1684265,1.15669 c -0.4026573,0.61283 -0.68308,1.29797 -0.8247287,2.01713 l -1.6588041,0.003 v 2.22174 l 1.6724648,-0.006 c 0.073327,0.35077 0.1797598,0.70243 0.3242851,1.04472 0.1452428,0.34448 0.3214064,0.6644 0.5227339,0.96066 l -1.1993431,1.19723 1.5840256,1.56011 1.1964668,-1.19348 c 0.6140517,0.40346 1.3028827,0.68232 2.0233517,0.82331 l 7.19e-4,1.69892 h 2.226848 z m 0.221462,-3.9957 c -1.788948,0.7502 -3.8576,-0.0928 -4.6097055,-1.87438 -0.7521065,-1.78321 0.090598,-3.84627 1.8802645,-4.59604 1.78823,-0.74936 3.856881,0.0929 4.608987,1.87437 0.752106,1.78165 -0.0906,3.84612 -1.879546,4.59605 z" style="fill: rgb(225, 190, 231); stroke-linecap: round; stroke-linejoin: round; stroke: rgb(91, 23, 109); stroke-width: 1px;"/><circle cx="5" cy="5" r="5" transform="translate(11, 10)" style="stroke-linecap: round; stroke-linejoin: round; stroke: none; stroke-width: 2px; fill: rgb(225, 190, 231);"/><path d="m 17,22 v -1.71335 c 0.352326,-0.0705 0.703932,-0.17838 1.047628,-0.32133 0.344416,-0.14465 0.665822,-0.32133 0.966377,-0.52145 l 1.19431,1.18005 1.567487,-1.57688 -1.195028,-1.18014 c 0.403376,-0.61394 0.683079,-1.29908 0.825447,-2.01824 l 1.622133,-0.01 v -2.2196 l -1.636514,0.01 c -0.07333,-0.35153 -0.178319,-0.70024 -0.323564,-1.04372 -0.145244,-0.34406 -0.321407,-0.6644 -0.522735,-0.96217 l 1.131035,-1.13631 -1.583305,-1.56293 -1.129598,1.13589 c -0.614052,-0.40108 -1.302883,-0.68093 -2.022633,-0.82247 l 0.0093,-1.61852 h -2.241173 l 0.0042,1.63124 c -0.353763,0.0736 -0.705369,0.17977 -1.049785,0.32371 -0.344415,0.14437 -0.665102,0.32092 -0.9635006,0.52046 l -1.1698628,-1.15823 -1.5667691,1.5792 1.1684265,1.15669 c -0.4026573,0.61283 -0.68308,1.29797 -0.8247287,2.01713 l -1.6588041,0.003 v 2.22174 l 1.6724648,-0.006 c 0.073327,0.35077 0.1797598,0.70243 0.3242851,1.04472 0.1452428,0.34448 0.3214064,0.6644 0.5227339,0.96066 l -1.1993431,1.19723 1.5840256,1.56011 1.1964668,-1.19348 c 0.6140517,0.40346 1.3028827,0.68232 2.0233517,0.82331 l 7.19e-4,1.69892 h 2.226848 z m 0.221462,-3.9957 c -1.788948,0.7502 -3.8576,-0.0928 -4.6097055,-1.87438 -0.7521065,-1.78321 0.090598,-3.84627 1.8802645,-4.59604 1.78823,-0.74936 3.856881,0.0929 4.608987,1.87437 0.752106,1.78165 -0.0906,3.84612 -1.879546,4.59605 z" style="fill: rgb(225, 190, 231); stroke-linecap: round; stroke-linejoin: round; stroke: rgb(91, 23, 109); stroke-width: 1px;"/></g><rect class="djs-hit djs-hit-all" x="0" y="0" width="100" height="80" style="fill: none; stroke-opacity: 0; stroke: white; stroke-width: 15px;" _mstVisible="6"/><rect x="-5" y="-5" rx="14" width="110" height="90" class="djs-outline" style="fill: none;" _mstVisible="6"/></g></g><g class="djs-group" _mstVisible="4"><g class="djs-element djs-shape" data-element-id="Gateway_1fedt5z" style="display: block;" transform="matrix(1 0 0 1 415 475)" _mstVisible="5"><g class="djs-visual" _mstVisible="6"><polygon points="25,0 50,25 25,50 0,25" style="stroke-linecap: round; stroke-linejoin: round; stroke: rgb(34, 36, 42); stroke-width: 2px; fill: white; fill-opacity: 0.95;"/><path d="m 16,15 7.42857142857143,9.714285714285715 -7.42857142857143,9.714285714285715 3.428571428571429,0 5.714285714285715,-7.464228571428572 5.714285714285715,7.464228571428572 3.428571428571429,0 -7.42857142857143,-9.714285714285715 7.42857142857143,-9.714285714285715 -3.428571428571429,0 -5.714285714285715,7.464228571428572 -5.714285714285715,-7.464228571428572 -3.428571428571429,0 z" style="fill: rgb(34, 36, 42); stroke-linecap: round; stroke-linejoin: round; stroke: rgb(34, 36, 42); stroke-width: 1px;"/></g><rect class="djs-hit djs-hit-all" x="0" y="0" width="50" height="50" style="fill: none; stroke-opacity: 0; stroke: white; stroke-width: 15px;" _mstVisible="6"/><rect x="2" y="2" rx="4" width="46" height="46" class="djs-outline" style="transform-box: fill-box; transform: rotate(45deg); transform-origin: center center; fill: none;" _mstVisible="6"/></g></g><g class="djs-group" _mstVisible="4"><g class="djs-element djs-shape" data-element-id="Activity_1qiw2us" style="display: block;" transform="matrix(1 0 0 1 500 400)" _mstVisible="5"><g class="djs-visual" _mstVisible="6"><rect x="0" y="0" width="100" height="80" rx="10" ry="10" style="stroke-linecap: round; stroke-linejoin: round; stroke: rgb(34, 36, 42); stroke-width: 2px; fill: white; fill-opacity: 0.95;"/><text lineHeight="1.2" class="djs-label" _mstTextHash="3261960" _mstHash="431" style="font-family: Arial, sans-serif; font-size: 12px; font-weight: normal; fill: rgb(34, 36, 42);"><tspan x="16.46527862548828" y="36.4">Публикация </tspan><tspan x="31.077365458011627" y="50.8">товара</tspan></text><circle cx="5" cy="5" r="5" transform="translate(6, 6)" style="stroke-linecap: round; stroke-linejoin: round; stroke: none; stroke-width: 2px; fill: white;"/><path d="m 12,18 v -1.71335 c 0.352326,-0.0705 0.703932,-0.17838 1.047628,-0.32133 0.344416,-0.14465 0.665822,-0.32133 0.966377,-0.52145 l 1.19431,1.18005 1.567487,-1.57688 -1.195028,-1.18014 c 0.403376,-0.61394 0.683079,-1.29908 0.825447,-2.01824 l 1.622133,-0.01 v -2.2196 l -1.636514,0.01 c -0.07333,-0.35153 -0.178319,-0.70024 -0.323564,-1.04372 -0.145244,-0.34406 -0.321407,-0.6644 -0.522735,-0.96217 l 1.131035,-1.13631 -1.583305,-1.56293 -1.129598,1.13589 c -0.614052,-0.40108 -1.302883,-0.68093 -2.022633,-0.82247 l 0.0093,-1.61852 h -2.241173 l 0.0042,1.63124 c -0.353763,0.0736 -0.705369,0.17977 -1.049785,0.32371 -0.344415,0.14437 -0.665102,0.32092 -0.9635006,0.52046 l -1.1698628,-1.15823 -1.5667691,1.5792 1.1684265,1.15669 c -0.4026573,0.61283 -0.68308,1.29797 -0.8247287,2.01713 l -1.6588041,0.003 v 2.22174 l 1.6724648,-0.006 c 0.073327,0.35077 0.1797598,0.70243 0.3242851,1.04472 0.1452428,0.34448 0.3214064,0.6644 0.5227339,0.96066 l -1.1993431,1.19723 1.5840256,1.56011 1.1964668,-1.19348 c 0.6140517,0.40346 1.3028827,0.68232 2.0233517,0.82331 l 7.19e-4,1.69892 h 2.226848 z m 0.221462,-3.9957 c -1.788948,0.7502 -3.8576,-0.0928 -4.6097055,-1.87438 -0.7521065,-1.78321 0.090598,-3.84627 1.8802645,-4.59604 1.78823,-0.74936 3.856881,0.0929 4.608987,1.87437 0.752106,1.78165 -0.0906,3.84612 -1.879546,4.59605 z" style="fill: white; stroke-linecap: round; stroke-linejoin: round; stroke: rgb(34, 36, 42); stroke-width: 1px;"/><circle cx="5" cy="5" r="5" transform="translate(11, 10)" style="stroke-linecap: round; stroke-linejoin: round; stroke: none; stroke-width: 2px; fill: white;"/><path d="m 17,22 v -1.71335 c 0.352326,-0.0705 0.703932,-0.17838 1.047628,-0.32133 0.344416,-0.14465 0.665822,-0.32133 0.966377,-0.52145 l 1.19431,1.18005 1.567487,-1.57688 -1.195028,-1.18014 c 0.403376,-0.61394 0.683079,-1.29908 0.825447,-2.01824 l 1.622133,-0.01 v -2.2196 l -1.636514,0.01 c -0.07333,-0.35153 -0.178319,-0.70024 -0.323564,-1.04372 -0.145244,-0.34406 -0.321407,-0.6644 -0.522735,-0.96217 l 1.131035,-1.13631 -1.583305,-1.56293 -1.129598,1.13589 c -0.614052,-0.40108 -1.302883,-0.68093 -2.022633,-0.82247 l 0.0093,-1.61852 h -2.241173 l 0.0042,1.63124 c -0.353763,0.0736 -0.705369,0.17977 -1.049785,0.32371 -0.344415,0.14437 -0.665102,0.32092 -0.9635006,0.52046 l -1.1698628,-1.15823 -1.5667691,1.5792 1.1684265,1.15669 c -0.4026573,0.61283 -0.68308,1.29797 -0.8247287,2.01713 l -1.6588041,0.003 v 2.22174 l 1.6724648,-0.006 c 0.073327,0.35077 0.1797598,0.70243 0.3242851,1.04472 0.1452428,0.34448 0.3214064,0.6644 0.5227339,0.96066 l -1.1993431,1.19723 1.5840256,1.56011 1.1964668,-1.19348 c 0.6140517,0.40346 1.3028827,0.68232 2.0233517,0.82331 l 7.19e-4,1.69892 h 2.226848 z m 0.221462,-3.9957 c -1.788948,0.7502 -3.8576,-0.0928 -4.6097055,-1.87438 -0.7521065,-1.78321 0.090598,-3.84627 1.8802645,-4.59604 1.78823,-0.74936 3.856881,0.0929 4.608987,1.87437 0.752106,1.78165 -0.0906,3.84612 -1.879546,4.59605 z" style="fill: white; stroke-linecap: round; stroke-linejoin: round; stroke: rgb(34, 36, 42); stroke-width: 1px;"/></g><rect class="djs-hit djs-hit-all" x="0" y="0" width="100" height="80" style="fill: none; stroke-opacity: 0; stroke: white; stroke-width: 15px;" _mstVisible="6"/><rect x="-5" y="-5" rx="14" width="110" height="90" class="djs-outline" style="fill: none;" _mstVisible="6"/></g></g><g class="djs-group" _mstVisible="4" _mstHidden="1"><g class="djs-element djs-shape" data-element-id="Event_1nttufz" style="display: block;" transform="matrix(1 0 0 1 652 422)" _mstVisible="5" _mstHidden="1"><g class="djs-visual" _mstVisible="6"><circle cx="18" cy="18" r="18" style="stroke-linecap: round; stroke-linejoin: round; stroke: rgb(32, 80, 34); stroke-width: 4px; fill: rgb(200, 230, 201); fill-opacity: 0.95;"/></g><rect class="djs-hit djs-hit-all" x="0" y="0" width="36" height="36" style="fill: none; stroke-opacity: 0; stroke: white; stroke-width: 15px;" _mstVisible="6"/><circle cx="18" cy="18" r="24" class="djs-outline" style="fill: none;" _mstVisible="6"/></g></g><g class="djs-group"><g class="djs-element djs-shape" data-element-id="Event_1xi0qud" style="display: block;" transform="matrix(1 0 0 1 202 482)"><g class="djs-visual"><circle cx="18" cy="18" r="18" style="stroke-linecap: round; stroke-linejoin: round; stroke: rgb(34, 36, 42); stroke-width: 2px; fill: white; fill-opacity: 0.95;"/><path d="m 8.459999999999999,11.34 l 0,12.6 l 18.900000000000002,0 l 0,-12.6 z l 9.450000000000001,5.4 l 9.450000000000001,-5.4" style="fill: white; stroke-linecap: round; stroke-linejoin: round; stroke: rgb(34, 36, 42); stroke-width: 1px;"/></g><rect class="djs-hit djs-hit-all" x="0" y="0" width="36" height="36" style="fill: none; stroke-opacity: 0; stroke: white; stroke-width: 15px;"/><circle cx="18" cy="18" r="23" class="djs-outline" style="fill: none;"/></g></g><g class="djs-group" _mstVisible="4" _mstHidden="1"><g class="djs-element djs-connection" data-element-id="Flow_0bu4i4f" _mstVisible="5" _mstHidden="1" style="display: block;"><g class="djs-visual" _mstVisible="6"><defs><marker id="marker-cw15x8ymaqsdxey3x6doiknp7" viewBox="0 0 20 20" refX="11" refY="10" markerWidth="10" markerHeight="10" orient="auto"><path d="M 1 5 L 11 10 L 1 15 Z" style="stroke-linecap: round; stroke-linejoin: round; stroke: rgb(34, 36, 42); stroke-width: 1px; fill: rgb(34, 36, 42);"/></marker></defs><path data-corner-radius="5" style="fill: none; stroke-linecap: round; stroke-linejoin: round; stroke: rgb(34, 36, 42); stroke-width: 2px; marker-end: url('#marker-cw15x8ymaqsdxey3x6doiknp7');" d="M390,500L415,500"/></g><path d="M390,500L415,500" class="djs-hit djs-hit-stroke" style="fill: none; stroke-opacity: 0; stroke: white; stroke-width: 15px;" _mstVisible="6"/><rect x="385" y="495" rx="4" width="35" height="10" class="djs-outline" style="fill: none;" _mstVisible="6"/></g></g><g class="djs-group" _mstVisible="4" _mstHidden="1"><g class="djs-element djs-connection" data-element-id="Flow_0l1py45" _mstVisible="5" _mstHidden="1" style="display: block;"><g class="djs-visual" _mstVisible="6"><defs><marker id="marker-98r6fqm6ulyelfw0m5vza0fkx" viewBox="0 0 20 20" refX="11" refY="10" markerWidth="10" markerHeight="10" orient="auto"><path d="M 1 5 L 11 10 L 1 15 Z" style="stroke-linecap: round; stroke-linejoin: round; stroke: rgb(34, 36, 42); stroke-width: 1px; fill: rgb(34, 36, 42);"/></marker></defs><path data-corner-radius="5" style="fill: none; stroke-linecap: round; stroke-linejoin: round; stroke: rgb(34, 36, 42); stroke-width: 2px; marker-end: url('#marker-98r6fqm6ulyelfw0m5vza0fkx');" d="M440,475L440,445C440,442.5,442.5,440,445,440L500,440"/></g><path d="M440,475L440,440L500,440" class="djs-hit djs-hit-stroke" style="fill: none; stroke-opacity: 0; stroke: white; stroke-width: 15px;" _mstVisible="6"/><rect x="435" y="435" rx="4" width="70" height="45" class="djs-outline" style="fill: none;" _mstVisible="6"/></g></g><g class="djs-group" _mstVisible="4" _mstHidden="1"><g class="djs-element djs-connection" data-element-id="Flow_0jgklqj" _mstVisible="5" _mstHidden="1" style="display: block;"><g class="djs-visual" _mstVisible="6"><defs><marker id="marker-agmkcd47z6m9rhpobbowmndv7" viewBox="0 0 20 20" refX="11" refY="10" markerWidth="10" markerHeight="10" orient="auto"><path d="M 1 5 L 11 10 L 1 15 Z" style="stroke-linecap: round; stroke-linejoin: round; stroke: rgb(34, 36, 42); stroke-width: 1px; fill: rgb(34, 36, 42);"/></marker></defs><path data-corner-radius="5" style="fill: none; stroke-linecap: round; stroke-linejoin: round; stroke: rgb(34, 36, 42); stroke-width: 2px; marker-end: url('#marker-agmkcd47z6m9rhpobbowmndv7');" d="M440,525L440,565C440,567.5,442.5,570,445,570L500,570"/></g><path d="M440,525L440,570L500,570" class="djs-hit djs-hit-stroke" style="fill: none; stroke-opacity: 0; stroke: white; stroke-width: 15px;" _mstVisible="6"/><rect x="435" y="520" rx="4" width="70" height="55" class="djs-outline" style="fill: none;" _mstVisible="6"/></g></g><g class="djs-group" _mstVisible="4" _mstHidden="1"><g class="djs-element djs-connection" data-element-id="Flow_05yismi" _mstVisible="5" _mstHidden="1" style="display: block;"><g class="djs-visual" _mstVisible="6"><defs><marker id="marker-51fwdra7hzcobcervyzxgy43u" viewBox="0 0 20 20" refX="11" refY="10" markerWidth="10" markerHeight="10" orient="auto"><path d="M 1 5 L 11 10 L 1 15 Z" style="stroke-linecap: round; stroke-linejoin: round; stroke: rgb(34, 36, 42); stroke-width: 1px; fill: rgb(34, 36, 42);"/></marker></defs><path data-corner-radius="5" style="fill: none; stroke-linecap: round; stroke-linejoin: round; stroke: rgb(34, 36, 42); stroke-width: 2px; marker-end: url('#marker-51fwdra7hzcobcervyzxgy43u');" d="M600,570L652,570"/></g><path d="M600,570L652,570" class="djs-hit djs-hit-stroke" style="fill: none; stroke-opacity: 0; stroke: white; stroke-width: 15px;" _mstVisible="6"/><rect x="595" y="565" rx="4" width="62" height="10" class="djs-outline" style="fill: none;" _mstVisible="6"/></g></g><g class="djs-group" _mstVisible="4" _mstHidden="1"><g class="djs-element djs-connection" data-element-id="Flow_0mnroge" _mstVisible="5" _mstHidden="1" style="display: block;"><g class="djs-visual" _mstVisible="6"><defs><marker id="marker-9om21bzatezvgrgar3eashhps" viewBox="0 0 20 20" refX="11" refY="10" markerWidth="10" markerHeight="10" orient="auto"><path d="M 1 5 L 11 10 L 1 15 Z" style="stroke-linecap: round; stroke-linejoin: round; stroke: rgb(34, 36, 42); stroke-width: 1px; fill: rgb(34, 36, 42);"/></marker></defs><path data-corner-radius="5" style="fill: none; stroke-linecap: round; stroke-linejoin: round; stroke: rgb(34, 36, 42); stroke-width: 2px; marker-end: url('#marker-9om21bzatezvgrgar3eashhps');" d="M600,440L652,440"/></g><path d="M600,440L652,440" class="djs-hit djs-hit-stroke" style="fill: none; stroke-opacity: 0; stroke: white; stroke-width: 15px;" _mstVisible="6"/><rect x="595" y="435" rx="4" width="62" height="10" class="djs-outline" style="fill: none;" _mstVisible="6"/></g></g><g class="djs-group"><g class="djs-element djs-connection" data-element-id="Flow_1rlq4km" style="display: block;"><g class="djs-visual"><defs><marker id="marker-ew00phng5ge8vw066wvpvsnoe" viewBox="0 0 20 20" refX="11" refY="10" markerWidth="10" markerHeight="10" orient="auto"><path d="M 1 5 L 11 10 L 1 15 Z" style="stroke-linecap: round; stroke-linejoin: round; stroke: rgb(34, 36, 42); stroke-width: 1px; fill: rgb(34, 36, 42);"/></marker></defs><path data-corner-radius="5" style="fill: none; stroke-linecap: round; stroke-linejoin: round; stroke: rgb(34, 36, 42); stroke-width: 2px; marker-end: url('#marker-ew00phng5ge8vw066wvpvsnoe');" d="M238,500L290,500"/></g><path d="M238,500L290,500" class="djs-hit djs-hit-stroke" style="fill: none; stroke-opacity: 0; stroke: white; stroke-width: 15px;"/><rect x="233" y="495" rx="4" width="62" height="10" class="djs-outline" style="fill: none;"/></g></g><g class="djs-group"><g class="djs-element djs-shape" data-element-id="Event_1nttufz_label" style="display: block;" transform="matrix(1 0 0 1 637 465)"><g class="djs-visual"><text lineHeight="1.2" class="djs-label" _mstTextHash="3258320" _mstHash="443" style="font-family: Arial, sans-serif; font-size: 11px; font-weight: normal; fill: rgb(32, 80, 34);"><tspan x="17.564406394958496" y="9.899999999999999">Товар </tspan><tspan x="0" y="23.099999999999998">опубликован</tspan></text></g><rect class="djs-hit djs-hit-all" x="0" y="0" width="66" height="27" style="fill: none; stroke-opacity: 0; stroke: white; stroke-width: 15px;"/><rect x="-5" y="-5" rx="4" width="76" height="37" class="djs-outline" style="fill: none;"/></g></g><g class="djs-group"><g class="djs-element djs-shape" data-element-id="Event_08l16lk_label" style="display: block;" transform="matrix(1 0 0 1 640 595)"><g class="djs-visual"><text lineHeight="1.2" class="djs-label" _mstTextHash="5829148" _mstHash="465" style="font-family: Arial, sans-serif; font-size: 11px; font-weight: normal; fill: rgb(91, 23, 109);"><tspan x="7.62385368347168" y="9.899999999999999">Процесс </tspan><tspan x="0" y="23.099999999999998">завершен с </tspan><tspan x="7.37152099609375" y="36.3">ошибкой</tspan></text></g><rect class="djs-hit djs-hit-all" x="0" y="0" width="60" height="40" style="fill: none; stroke-opacity: 0; stroke: white; stroke-width: 15px;"/><rect x="-5" y="-5" rx="4" width="70" height="50" class="djs-outline" style="fill: none;"/></g></g></g></g><g class="djs-group"><g class="djs-element djs-connection" data-element-id="Flow_1ephbvz" style="display: block;"><g class="djs-visual"><defs><marker id="marker-2b3plnok694gz464ixxsdyxox" viewBox="0 0 20 20" refX="8.5" refY="5" markerWidth="20" markerHeight="20" orient="auto"><path d="m 1 5 l 0 -3 l 7 3 l -7 3 z" style="stroke-linecap: round; stroke-linejoin: round; stroke: rgb(34, 36, 42); stroke-width: 1px; fill: white; stroke-dasharray: 10000, 1;"/></marker><marker id="marker-dvkoiwnga3ipy286bxus5bi8r" viewBox="0 0 20 20" refX="6" refY="6" markerWidth="20" markerHeight="20" orient="auto"><circle cx="6" cy="6" r="3.5" style="stroke-linecap: round; stroke-linejoin: round; stroke: rgb(34, 36, 42); stroke-width: 1px; fill: white; stroke-dasharray: 10000, 1;"/></marker></defs><path data-corner-radius="5" style="fill: none; stroke-linecap: round; stroke-linejoin: round; stroke: rgb(34, 36, 42); stroke-width: 1.5px; marker-end: url('#marker-2b3plnok694gz464ixxsdyxox'); marker-start: url('#marker-dvkoiwnga3ipy286bxus5bi8r'); stroke-dasharray: 10, 11;" d="M670,220L670,346C670,348.5,667.5,351,665,351L225,351C222.5,351,220,353.5,220,356L220,482"/></g><path d="M670,220L670,351L220,351L220,482" class="djs-hit djs-hit-stroke" style="fill: none; stroke-opacity: 0; stroke: white; stroke-width: 15px;"/><rect x="215" y="215" rx="4" width="460" height="272" class="djs-outline" style="fill: none;"/></g></g></svg>